<svg width="140" height="35" viewBox="0 0 140 35" fill="none" xmlns="http://www.w3.org/2000/svg">
<g clip-path="url(#clip0_35_239)">
<path d="M19.0539 17.3963C19.0018 15.0537 17.1407 13.1908 14.8803 13.2185H4.11902V21.5741H11.0886V28.6007C11.0292 29.7121 11.4083 30.8008 12.1388 31.6167C12.8693 32.4326 13.8885 32.9056 14.9622 32.9269C16.0582 32.9157 17.1051 32.4536 17.8725 31.6423C18.6399 30.8309 19.0648 29.7368 19.0539 28.6007V17.3963Z" fill="#436FC8"/>
<path d="M4.22 21.666C6.55064 21.666 8.44 19.7765 8.44 17.4458C8.44 15.115 6.55064 13.2256 4.22 13.2256C1.88936 13.2256 0 15.115 0 17.4458C0 19.7765 1.88936 21.666 4.22 21.666Z" fill="#1B4599"/>
<path d="M28.9901 6.19899C28.9677 3.87311 27.1423 2 24.8984 2H13.8915C11.8005 2.21757 10.2084 4.04177 10.2084 6.2202C10.2084 8.39862 11.8005 10.2228 13.8915 10.4404H20.943V17.4599C20.8821 18.9922 21.6361 20.4359 22.9071 21.2208C24.1781 22.0057 25.7618 22.0057 27.0328 21.2208C28.3038 20.4359 29.0578 18.9922 28.9969 17.4599L28.9901 6.19899Z" fill="#B5CDFE"/>
</g>
<path d="M40.77 16.8C40.77 15.2893 41.1073 13.94 41.782 12.752C42.4713 11.5493 43.4027 10.618 44.576 9.958C45.764 9.28333 47.0913 8.946 48.558 8.946C50.274 8.946 51.7773 9.386 53.068 10.266C54.3587 11.146 55.2607 12.3633 55.774 13.918H52.232C51.88 13.1847 51.3813 12.6347 50.736 12.268C50.1053 11.9013 49.372 11.718 48.536 11.718C47.6413 11.718 46.842 11.9307 46.138 12.356C45.4487 12.7667 44.906 13.3533 44.51 14.116C44.1287 14.8787 43.938 15.7733 43.938 16.8C43.938 17.812 44.1287 18.7067 44.51 19.484C44.906 20.2467 45.4487 20.8407 46.138 21.266C46.842 21.6767 47.6413 21.882 48.536 21.882C49.372 21.882 50.1053 21.6987 50.736 21.332C51.3813 20.9507 51.88 20.3933 52.232 19.66H55.774C55.2607 21.2293 54.3587 22.454 53.068 23.334C51.792 24.1993 50.2887 24.632 48.558 24.632C47.0913 24.632 45.764 24.302 44.576 23.642C43.4027 22.9673 42.4713 22.036 41.782 20.848C41.1073 19.66 40.77 18.3107 40.77 16.8ZM57.6127 18.362C57.6127 17.13 57.8547 16.0373 58.3387 15.084C58.8374 14.1307 59.5047 13.3973 60.3407 12.884C61.1914 12.3707 62.1374 12.114 63.1787 12.114C64.0881 12.114 64.8801 12.2973 65.5547 12.664C66.2441 13.0307 66.7941 13.4927 67.2047 14.05V12.312H70.3067V24.5H67.2047V22.718C66.8087 23.29 66.2587 23.7667 65.5547 24.148C64.8654 24.5147 64.0661 24.698 63.1567 24.698C62.1301 24.698 61.1914 24.434 60.3407 23.906C59.5047 23.378 58.8374 22.6373 58.3387 21.684C57.8547 20.716 57.6127 19.6087 57.6127 18.362ZM67.2047 18.406C67.2047 17.658 67.0581 17.02 66.7647 16.492C66.4714 15.9493 66.0754 15.5387 65.5767 15.26C65.0781 14.9667 64.5427 14.82 63.9707 14.82C63.3987 14.82 62.8707 14.9593 62.3867 15.238C61.9027 15.5167 61.5067 15.9273 61.1987 16.47C60.9054 16.998 60.7587 17.6287 60.7587 18.362C60.7587 19.0953 60.9054 19.7407 61.1987 20.298C61.5067 20.8407 61.9027 21.2587 62.3867 21.552C62.8854 21.8453 63.4134 21.992 63.9707 21.992C64.5427 21.992 65.0781 21.8527 65.5767 21.574C66.0754 21.2807 66.4714 20.87 66.7647 20.342C67.0581 19.7993 67.2047 19.154 67.2047 18.406ZM76.3949 14.094C76.7909 13.5073 77.3335 13.0307 78.0229 12.664C78.7269 12.2973 79.5262 12.114 80.4209 12.114C81.4622 12.114 82.4009 12.3707 83.2369 12.884C84.0875 13.3973 84.7549 14.1307 85.2389 15.084C85.7375 16.0227 85.9869 17.1153 85.9869 18.362C85.9869 19.6087 85.7375 20.716 85.2389 21.684C84.7549 22.6373 84.0875 23.378 83.2369 23.906C82.4009 24.434 81.4622 24.698 80.4209 24.698C79.5115 24.698 78.7122 24.522 78.0229 24.17C77.3482 23.8033 76.8055 23.334 76.3949 22.762V24.5H73.3149V8.22H76.3949V14.094ZM82.8409 18.362C82.8409 17.6287 82.6869 16.998 82.3789 16.47C82.0855 15.9273 81.6895 15.5167 81.1909 15.238C80.7069 14.9593 80.1789 14.82 79.6069 14.82C79.0495 14.82 78.5215 14.9667 78.0229 15.26C77.5389 15.5387 77.1429 15.9493 76.8349 16.492C76.5415 17.0347 76.3949 17.6727 76.3949 18.406C76.3949 19.1393 76.5415 19.7773 76.8349 20.32C77.1429 20.8627 77.5389 21.2807 78.0229 21.574C78.5215 21.8527 79.0495 21.992 79.6069 21.992C80.1789 21.992 80.7069 21.8453 81.1909 21.552C81.6895 21.2587 82.0855 20.8407 82.3789 20.298C82.6869 19.7553 82.8409 19.11 82.8409 18.362ZM91.371 21.904H98.279V24.5H87.807V22.124L94.671 11.74H87.807V9.144H98.279V11.52L91.371 21.904ZM102.463 10.86C101.92 10.86 101.465 10.6913 101.099 10.354C100.747 10.002 100.571 9.56933 100.571 9.056C100.571 8.54267 100.747 8.11733 101.099 7.78C101.465 7.428 101.92 7.252 102.463 7.252C103.005 7.252 103.453 7.428 103.805 7.78C104.171 8.11733 104.355 8.54267 104.355 9.056C104.355 9.56933 104.171 10.002 103.805 10.354C103.453 10.6913 103.005 10.86 102.463 10.86ZM103.981 12.312V24.5H100.901V12.312H103.981ZM113.778 12.136C115.23 12.136 116.403 12.598 117.298 13.522C118.193 14.4313 118.64 15.7073 118.64 17.35V24.5H115.56V17.768C115.56 16.8 115.318 16.0593 114.834 15.546C114.35 15.018 113.69 14.754 112.854 14.754C112.003 14.754 111.329 15.018 110.83 15.546C110.346 16.0593 110.104 16.8 110.104 17.768V24.5H107.024V12.312H110.104V13.83C110.515 13.302 111.035 12.8913 111.666 12.598C112.311 12.29 113.015 12.136 113.778 12.136ZM126.343 12.114C127.252 12.114 128.051 12.2973 128.741 12.664C129.43 13.016 129.973 13.478 130.369 14.05V12.312H133.471V24.588C133.471 25.7173 133.243 26.722 132.789 27.602C132.334 28.4967 131.652 29.2007 130.743 29.714C129.833 30.242 128.733 30.506 127.443 30.506C125.712 30.506 124.289 30.1027 123.175 29.296C122.075 28.4893 121.451 27.3893 121.305 25.996H124.363C124.524 26.5533 124.869 26.9933 125.397 27.316C125.939 27.6533 126.592 27.822 127.355 27.822C128.249 27.822 128.975 27.5507 129.533 27.008C130.09 26.48 130.369 25.6733 130.369 24.588V22.696C129.973 23.268 129.423 23.7447 128.719 24.126C128.029 24.5073 127.237 24.698 126.343 24.698C125.316 24.698 124.377 24.434 123.527 23.906C122.676 23.378 122.001 22.6373 121.503 21.684C121.019 20.716 120.777 19.6087 120.777 18.362C120.777 17.13 121.019 16.0373 121.503 15.084C122.001 14.1307 122.669 13.3973 123.505 12.884C124.355 12.3707 125.301 12.114 126.343 12.114ZM130.369 18.406C130.369 17.658 130.222 17.02 129.929 16.492C129.635 15.9493 129.239 15.5387 128.741 15.26C128.242 14.9667 127.707 14.82 127.135 14.82C126.563 14.82 126.035 14.9593 125.551 15.238C125.067 15.5167 124.671 15.9273 124.363 16.47C124.069 16.998 123.923 17.6287 123.923 18.362C123.923 19.0953 124.069 19.7407 124.363 20.298C124.671 20.8407 125.067 21.2587 125.551 21.552C126.049 21.8453 126.577 21.992 127.135 21.992C127.707 21.992 128.242 21.8527 128.741 21.574C129.239 21.2807 129.635 20.87 129.929 20.342C130.222 19.7993 130.369 19.154 130.369 18.406Z" fill="white"/>
<rect x="135" y="7" width="5" height="5" rx="2.5" fill="#436FC8"/>
<defs>
<clipPath id="clip0_35_239">
<rect width="29" height="31" fill="white" transform="translate(0 2)"/>
</clipPath>
</defs>
</svg>
