<svg width="18" height="18" viewBox="0 0 18 18" fill="none" xmlns="http://www.w3.org/2000/svg">
<path d="M9 5.99998V8.99998L10.5 10.5M2.28749 8.24999C2.45556 6.60003 3.22519 5.0697 4.44954 3.95096C5.67389 2.83223 7.26726 2.2034 8.92565 2.18446C10.584 2.16552 12.1914 2.75779 13.4409 3.84827C14.6905 4.93874 15.4949 6.4511 15.7006 8.09679C15.9063 9.74248 15.499 11.4063 14.5563 12.7708C13.6135 14.1353 12.2015 15.105 10.5895 15.4949C8.97743 15.8847 7.2783 15.6675 5.81624 14.8845C4.35418 14.1016 3.23153 12.8078 2.66249 11.25M2.28749 15V11.25H6.03749" stroke="#28635B" stroke-width="1.5" stroke-linecap="round" stroke-linejoin="round"/>
</svg>
